<svg width="24" height="24" xmlns="http://www.w3.org/2000/svg">

 <g>
  <title>background</title>
  <rect fill="none" id="canvas_background" height="26" width="26" y="-1" x="-1"/>
 </g>
 <g>
  <title>Layer 1</title>
  <path fill="none" id="svg_1" stroke-linejoin="round" stroke-linecap="round" stroke-width="2" stroke="#34abe0" d="m16,3l-15,0l0,13l15,0l0,-13z"/>
  <path fill="none" id="svg_2" stroke-linejoin="round" stroke-linecap="round" stroke-width="2" stroke="#34abe0" d="m16,8l4,0l3,3l0,5l-7,0l0,-8z"/>
  <path fill="none" id="svg_3" stroke-linejoin="round" stroke-linecap="round" stroke-width="2" stroke="#34abe0" d="m5.5,21c1.38071,0 2.5,-1.1193 2.5,-2.5c0,-1.3807 -1.11929,-2.5 -2.5,-2.5c-1.38071,0 -2.5,1.1193 -2.5,2.5c0,1.3807 1.11929,2.5 2.5,2.5z"/>
  <path fill="none" id="svg_4" stroke-linejoin="round" stroke-linecap="round" stroke-width="2" stroke="#34abe0" d="m18.5,21c1.3807,0 2.5,-1.1193 2.5,-2.5c0,-1.3807 -1.1193,-2.5 -2.5,-2.5c-1.3807,0 -2.5,1.1193 -2.5,2.5c0,1.3807 1.1193,2.5 2.5,2.5z"/>
 </g>
</svg>